<svg xmlns="http://www.w3.org/2000/svg" id="SvgjsSvg328746" width="4096" height="1255.260373553053" version="1.1" xmlns:xlink="http://www.w3.org/1999/xlink" xmlns:svgjs="http://svgjs.com/svgjs"><defs id="SvgjsDefs328747"></defs><g id="SvgjsG328748" transform="translate(328, 328.00000000000006) scale(34.4)" opacity="1"><defs id="SvgjsDefs133694"><linearGradient id="SvgjsLinearGradientbcJ82AWbaS" gradientUnits="userSpaceOnUse" x1="-10.157718406322472" y1="-66.55124293280802" x2="9.697718406322464" y2="26.86124293280803"><stop id="SvgjsStop133697" stop-color="#9514af" offset="0.17"></stop><stop id="SvgjsStop133698" stop-color="#000000" offset="1"></stop></linearGradient><linearGradient id="SvgjsLinearGradientdO5IQ31o3QV" gradientUnits="userSpaceOnUse" x1="-6.980024095682936" y1="-70.66476816470188" x2="8.75002409568295" y2="18.544768164701907"><stop id="SvgjsStop133701" stop-color="#322f33" offset="0"></stop><stop id="SvgjsStop133702" stop-color="#9514af" offset="1"></stop></linearGradient><linearGradient id="SvgjsLinearGradient48TRb3CG1_" gradientUnits="userSpaceOnUse" x1="9.14938480673168" y1="91.52482594809138" x2="93.47596163628616" y2="7.198249118536895"><stop id="SvgjsStop133705" stop-color="#f8e71c" offset="0"></stop><stop id="SvgjsStop133706" stop-color="#d0021b" offset="1"></stop></linearGradient></defs><g id="SvgjsG133695" transform="scale(0.21645021645021645)" opacity="1"><g id="SvgjsG133699" class="text" transform="translate(89.86, 70.5499524794159) scale(1)" light-content="false" fill="url(#SvgjsLinearGradientbcJ82AWbaS)"><path d="M-72.83 0.49C-71.21 -2.48 -70.4 -5.99 -70.4 -10.05L-70.4 -47.73L-79.87 -47.73L-79.87 -10.25C-79.87 -3.24 -83.2 0.43 -89.86 0.78L-89.86 9.92C-86.01 9.79 -82.62 8.93 -79.68 7.33C-76.74 5.73 -74.45 3.45 -72.83 0.49Z M-36.94 -39.63C-33.87 -39.63 -30.26 -38.48 -26.1 -36.19L-22.54 -43.39C-24.79 -44.86 -27.1 -45.99 -29.48 -46.79C-31.86 -47.59 -34.82 -47.99 -38.36 -47.99C-42.86 -47.78 -46.46 -46.42 -49.16 -43.91C-51.86 -41.4 -53.21 -38.09 -53.21 -33.98C-53.21 -31.17 -52.56 -28.84 -51.24 -26.98C-49.92 -25.12 -48.35 -23.69 -46.53 -22.7C-44.72 -21.71 -42.45 -20.67 -39.72 -19.59C-35.1 -17.77 -32.78 -15.63 -32.78 -13.17C-32.78 -11.26 -33.52 -9.89 -34.99 -9.05C-36.46 -8.2 -38.19 -7.78 -40.18 -7.78C-41.86 -7.78 -43.77 -8.17 -45.89 -8.95C-48 -9.73 -49.89 -10.72 -51.53 -11.93L-55.68 -4.6C-53.26 -2.88 -50.64 -1.59 -47.83 -0.75C-45.02 0.1 -42.19 0.52 -39.34 0.52C-35.92 0.52 -32.98 -0.1 -30.51 -1.33C-28.05 -2.56 -26.18 -4.23 -24.9 -6.32C-23.63 -8.42 -22.99 -10.7 -22.99 -13.17C-22.99 -16.02 -23.52 -18.38 -24.58 -20.24C-25.64 -22.09 -26.97 -23.55 -28.57 -24.61C-30.17 -25.67 -32.09 -26.61 -34.34 -27.43C-37.11 -28.47 -39.32 -29.56 -40.99 -30.71C-42.65 -31.86 -43.49 -33.18 -43.49 -34.7C-43.49 -36.34 -42.91 -37.57 -41.77 -38.39C-40.62 -39.22 -39.01 -39.63 -36.94 -39.63Z M-6.94 -35.93C-9.12 -32.17 -10.21 -28.13 -10.21 -23.8C-10.21 -19.39 -9.12 -15.33 -6.94 -11.61C-4.76 -7.89 -1.81 -4.94 1.91 -2.76C5.63 -0.57 9.7 0.52 14.11 0.52C18.47 0.52 22.53 -0.57 26.27 -2.76C30.01 -4.94 32.99 -7.89 35.22 -11.61C37.44 -15.33 38.56 -19.39 38.56 -23.8C38.56 -28.13 37.44 -32.17 35.22 -35.93C32.99 -39.69 30.01 -42.69 26.27 -44.91C22.53 -47.14 18.47 -48.25 14.11 -48.25C9.74 -48.25 5.69 -47.14 1.95 -44.91C-1.79 -42.69 -4.76 -39.69 -6.94 -35.93ZM1.49 -16.15C0.17 -18.48 -0.49 -21.04 -0.49 -23.8C-0.49 -26.66 0.16 -29.25 1.46 -31.58C2.76 -33.92 4.52 -35.77 6.75 -37.13C8.97 -38.49 11.45 -39.17 14.17 -39.17C16.9 -39.17 19.37 -38.49 21.6 -37.13C23.82 -35.77 25.59 -33.92 26.88 -31.58C28.18 -29.25 28.83 -26.66 28.83 -23.8C28.83 -20.99 28.2 -18.43 26.95 -16.12C25.69 -13.8 23.96 -11.97 21.76 -10.6C19.55 -9.24 17.11 -8.56 14.43 -8.56C11.66 -8.56 9.14 -9.24 6.87 -10.6C4.6 -11.97 2.81 -13.81 1.49 -16.15Z M74.81 -9.34L78.51 0L89.4 0L67.87 -49.61L67.35 -49.61L45.82 0L55.1 0L58.99 -9.34ZM71.7 -17.25L62.29 -17.25L67.09 -28.86Z"></path></g><g id="SvgjsG133703" class="text" transform="translate(351.29783679972076, 74.61502710628156) scale(1)" light-content="false" fill="url(#SvgjsLinearGradientdO5IQ31o3QV)"><path d="M-67.74 -2.58C-65.69 -3.51 -64.26 -4.39 -63.46 -5.24L-63.46 -27.27L-82.86 -27.27L-82.86 -17.35L-73.87 -17.35L-73.87 -11.05C-75.43 -10.15 -77.81 -9.7 -81.02 -9.7C-84.37 -9.7 -87.36 -10.34 -89.98 -11.61C-92.6 -12.89 -94.64 -14.72 -96.11 -17.1C-97.57 -19.49 -98.3 -22.29 -98.3 -25.5C-98.3 -31.07 -96.8 -35.27 -93.8 -38.1C-90.81 -40.93 -86.47 -42.35 -80.81 -42.35C-79.2 -42.35 -77.21 -42.03 -74.82 -41.4C-72.44 -40.76 -70.56 -40.06 -69.19 -39.31L-65.86 -48.87C-67.99 -50 -70.44 -50.92 -73.23 -51.63C-76.02 -52.34 -78.99 -52.69 -82.15 -52.69C-87.06 -52.69 -91.55 -51.64 -95.61 -49.54C-99.67 -47.44 -102.9 -44.28 -105.31 -40.05C-107.72 -35.82 -108.92 -30.67 -108.92 -24.58C-108.92 -19.71 -107.79 -15.38 -105.52 -11.58C-103.26 -7.78 -100.04 -4.8 -95.86 -2.66C-91.68 -0.51 -86.83 0.57 -81.3 0.57C-79.27 0.57 -77.02 0.27 -74.54 -0.32C-72.06 -0.91 -69.79 -1.66 -67.74 -2.58Z M-6.69 -2.58C-4.64 -3.51 -3.21 -4.39 -2.41 -5.24L-2.41 -27.27L-21.81 -27.27L-21.81 -17.35L-12.82 -17.35L-12.82 -11.05C-14.38 -10.15 -16.76 -9.7 -19.97 -9.7C-23.32 -9.7 -26.31 -10.34 -28.93 -11.61C-31.55 -12.89 -33.59 -14.72 -35.06 -17.1C-36.52 -19.49 -37.25 -22.29 -37.25 -25.5C-37.25 -31.07 -35.75 -35.27 -32.76 -38.1C-29.76 -40.93 -25.42 -42.35 -19.76 -42.35C-18.15 -42.35 -16.16 -42.03 -13.77 -41.4C-11.39 -40.76 -9.51 -40.06 -8.14 -39.31L-4.82 -48.87C-6.94 -50 -9.4 -50.92 -12.18 -51.63C-14.97 -52.34 -17.94 -52.69 -21.1 -52.69C-26.02 -52.69 -30.5 -51.64 -34.56 -49.54C-38.62 -47.44 -41.86 -44.28 -44.26 -40.05C-46.67 -35.82 -47.88 -30.67 -47.88 -24.58C-47.88 -19.71 -46.74 -15.38 -44.48 -11.58C-42.21 -7.78 -38.99 -4.8 -34.81 -2.66C-30.63 -0.51 -25.78 0.57 -20.26 0.57C-18.22 0.57 -15.97 0.27 -13.49 -0.32C-11.01 -0.91 -8.75 -1.66 -6.69 -2.58Z M51.91 -52.12L16.36 -52.12L16.36 0L52.9 0L52.9 -9.92L26.63 -9.92L26.63 -21.18L49.01 -21.18L49.01 -31.09L26.63 -31.09L26.63 -42.21L51.91 -42.21Z M98.73 0L110.69 0L98.58 -18.91C101.37 -20.51 103.44 -22.72 104.78 -25.53C106.13 -28.34 106.8 -31.35 106.8 -34.56C106.8 -39.99 105.02 -44.28 101.45 -47.42C97.89 -50.55 92.87 -52.12 86.4 -52.12L70.61 -52.12L70.61 0L80.88 0L80.88 -16.57L87.75 -16.57ZM80.88 -26.49L80.88 -42.21L88.24 -42.21C91.36 -42.21 93.46 -41.35 94.55 -39.62C95.63 -37.9 96.18 -36.1 96.18 -34.21C96.18 -32.32 95.54 -30.56 94.26 -28.93C92.99 -27.3 90.96 -26.49 88.17 -26.49Z"></path></g><g id="SvgjsG133707" class="JwdOiyw41U" transform="translate(174.42893029940427, -7.133456080848091) scale(0.9236638716623201)" light-content="false" fill="url(#SvgjsLinearGradient48TRb3CG1_)"><path d="M33.329 27.033c-18.15-.593-14.573 7.76-13.865 10.29-.44-3.278-3.639-10.295 13.865-10.29z"></path><path d="M25.109 26.893c-2.299.229-6.305-2.361-8.604-1.954-.6 2.081.373 4.773 1.672 6.421.372-1.568 2.018-3.966 6.932-4.467zm8.12 15.195c-6.406 7.025-5.873 17.649-5.171 21.269-2.392 2.642-6.226 6.506-9.815 13.112-18.197 5.393-3.606 9.323-9.593 13.194-.736.743 14.831 2.855 9.443-5.086-3.545.572-7.728.308-7.46-2.412-.134-2.38 6.983-4.383 9.918-5.175.934-3.967 6.272-10.992 9.075-13.599-1.469-3.06-1.867-15.1 3.603-21.303m4.13-13.712c4.138 2.719.828 8.447-.248 9.972.995-2.076 3.927-6.576.248-9.972z"></path><path d="M31.505 88.664c-9.057.429-10.31-1.395 1.866-4.732-2.994.354-7.342 1.33-8.418 1.564-5.707 1.253-6.408 4.441.098 5.215 4.347.446 9.26.599 19.473-1.232 5.633-1.288 4.374-7.014-1.946-19.11 7.287 16.363-6.54 17.888-11.073 18.295zM59.54 68.688c1.385.92 2.57 1.883 5.854 1.131l-1.775 4.439c-2.428-.854-3.768-1.855-5.141-3.838l1.062-1.732zm6.734-7.15c-1.238.376-3.613.705-5.475-.498l-.25 4.3c1.859 1.281 3.779.639 5.725-.188v-3.614zm-.795-6.999c-1.508-.226-3.812-.527-5.672.226l.742 3.763c2.395 1.58 4.242.346 5.482-.331l-.552-3.658zm-1.597-7.752c-1.238-.076-4.5-.275-6.094.178l1.045 3.81c2.746 2.333 4.52.075 5.76-.827l-.711-3.161zm-8.506-8.505c1.596-.602 5.051-.527 6.557-.151l.725 3.478c-1.152.904-3.461 3.035-6.475.023l-.807-3.35zm5.492-9.108c-.973.225-4.771 1.869-7.254-.313l.699 5.046c2.393.829 5.227.686 6.912-.066l-.357-4.667zm-6.469-9.559c3.9.602 5.584 1.129 7.533 1.807l-.885 4.215c-1.867 1.411-2.812 2.015-7.537.526l.889-6.548zm.622-2.032c2.127-.601 6.383.453 8.066 1.43l2.479-2.709c-3.01-1.129-5.227-2.634-5.496-5.795-1.729 1.028-4.577 5.409-5.049 7.074zm13.607-9.86c.975 1.732 2.127 4.293 2.039 7.002l-3.061.374c-.709-1.58-.266-2.708-5.674-5.72l6.696-1.656zm6.947 8.33c1.064-1.28 2.045-5.093 2.225-5.845l-4.344-1.731c.266 1.58.682 4.939-.029 6.746l2.148.83zm5.612 3.562c-1.771-2.935 1.664-4.892 3.17-4.892l-2.746-2.182c-.977.978-3.059 1.76-3.592 4.921l3.168 2.153zm10.164 2.012c-3.459-.979-6.213-2.175-4.885 3.921l-1.742-2.014c-4.076-8.054 2.645-5.502 3.885-4.977l2.742 3.07m2.248 2.853c1.434 2.89-1.104 6.294-5.5 2.717 1.109-3.637 2.283-4.969 5.5-2.717M28.297 39.917c.261 2.935-9.005 7.807-11.973 3.475-.958-1.932 6.226-7.338 3.474-8.761 3.934 1.509-1.35 6.75-1.088 7.788.785 1.777 9.036.91 9.587-2.502zm7.924-6.584c4.91-3.864-1.194-7.625-2.273-7.929-3.335 3.333-4.93 4.069-3.83 7.521 3.247-5.862 9.793-5.047 6.103.408z"></path><path d="M56.304 67.806C45.17 57.131 43.5 61.424 41.946 63.256 26.024 83.69 15.249 83.078 12.736 82.874c4.364-.046 22.166-7.974 24.172-27.758 2.007-19.783 16.798 5.617 19.396 12.69z"></path></g></g></g></svg>